<svg width="371" height="402" viewBox="0 0 371 402" fill="none" xmlns="http://www.w3.org/2000/svg">
<rect width="371" height="402" rx="32" fill="#DDFCFA"/>
<g filter="url(#filter0_i_746_136)">
<path d="M153.074 192.109C145.037 187.933 132.83 185.594 127.074 184.609L118.074 175.609C117.408 175.109 121.074 169.064 135.574 165.109C141.074 163.609 157.831 166.609 162.574 166.609C166.574 166.609 172.741 162.943 176.074 160.609C178.574 159.109 181.574 160.609 182.574 162.609C181.574 167.609 172.074 174.109 161.574 178.109C170.574 185.609 191.074 182.109 199.574 177.609C208.074 173.109 210.574 173.609 214.074 177.109C208.574 188.609 166.568 199.121 153.074 192.109Z" fill="#80D4D9"/>
</g>
<g filter="url(#filter1_i_746_136)">
<path d="M287.5 182.77C211.325 70.3017 142.104 104.41 103 151.77L116 166.5L118.5 164.27C137.437 142.217 164.626 120.206 190.5 123.77C218.595 127.64 244.952 158.441 252.5 166.77L267 182.77C178.5 273.27 121.5 201.5 83 152V183C173 299 259.5 228.27 287.5 182.77Z" fill="#80D4D9"/>
</g>
<path d="M83 152.219C160.476 265.697 228.347 227.13 267.5 183L254 168.5L252 170.719C233.063 192.772 205.874 214.783 180 211.219C151.905 207.349 125.548 176.548 118 168.219L103.5 152.219C192 61.719 249 133.719 287.5 183.219L287.5 152.219C197.5 36.2191 111 106.719 83 152.219Z" fill="#31B0B8"/>
<path d="M213 145C221.037 149.176 233.244 151.515 239 152.5L248 161.5C248.667 162 245 168.045 230.5 172C225 173.5 208.243 170.5 203.5 170.5C199.5 170.5 193.333 174.167 190 176.5C187.5 178 184 177 183.5 174.5C184.5 169.5 194 163 204.5 159C195.5 151.5 175 155 166.5 159.5C158 164 155.5 163.5 152 160C160.5 146.5 199.506 137.989 213 145Z" fill="#31B0B8"/>
<g filter="url(#filter2_i_746_136)">
<path d="M137.984 287.656C137.888 287.816 137.781 287.939 137.664 288.024C137.557 288.099 137.424 288.136 137.264 288.136C137.083 288.136 136.869 288.045 136.624 287.864C136.379 287.683 136.069 287.485 135.696 287.272C135.333 287.048 134.891 286.845 134.368 286.664C133.856 286.483 133.232 286.392 132.496 286.392C131.803 286.392 131.189 286.488 130.656 286.68C130.133 286.861 129.691 287.112 129.328 287.432C128.976 287.752 128.709 288.131 128.528 288.568C128.347 288.995 128.256 289.459 128.256 289.96C128.256 290.6 128.411 291.133 128.72 291.56C129.04 291.976 129.456 292.333 129.968 292.632C130.491 292.931 131.077 293.192 131.728 293.416C132.389 293.629 133.061 293.853 133.744 294.088C134.437 294.323 135.109 294.589 135.76 294.888C136.421 295.176 137.008 295.544 137.52 295.992C138.043 296.44 138.459 296.989 138.768 297.64C139.088 298.291 139.248 299.091 139.248 300.04C139.248 301.043 139.077 301.987 138.736 302.872C138.395 303.747 137.893 304.509 137.232 305.16C136.581 305.811 135.776 306.323 134.816 306.696C133.867 307.069 132.784 307.256 131.568 307.256C130.075 307.256 128.72 306.989 127.504 306.456C126.288 305.912 125.248 305.181 124.384 304.264L125.28 302.792C125.365 302.675 125.467 302.579 125.584 302.504C125.712 302.419 125.851 302.376 126 302.376C126.139 302.376 126.293 302.435 126.464 302.552C126.645 302.659 126.848 302.797 127.072 302.968C127.296 303.139 127.552 303.325 127.84 303.528C128.128 303.731 128.453 303.917 128.816 304.088C129.189 304.259 129.611 304.403 130.08 304.52C130.549 304.627 131.077 304.68 131.664 304.68C132.4 304.68 133.056 304.579 133.632 304.376C134.208 304.173 134.693 303.891 135.088 303.528C135.493 303.155 135.803 302.712 136.016 302.2C136.229 301.688 136.336 301.117 136.336 300.488C136.336 299.795 136.176 299.229 135.856 298.792C135.547 298.344 135.136 297.971 134.624 297.672C134.112 297.373 133.525 297.123 132.864 296.92C132.203 296.707 131.531 296.493 130.848 296.28C130.165 296.056 129.493 295.8 128.832 295.512C128.171 295.224 127.584 294.851 127.072 294.392C126.56 293.933 126.144 293.363 125.824 292.68C125.515 291.987 125.36 291.133 125.36 290.12C125.36 289.309 125.515 288.525 125.824 287.768C126.144 287.011 126.603 286.339 127.2 285.752C127.808 285.165 128.549 284.696 129.424 284.344C130.309 283.992 131.323 283.816 132.464 283.816C133.744 283.816 134.907 284.019 135.952 284.424C137.008 284.829 137.936 285.416 138.736 286.184L137.984 287.656ZM160.201 298.488L156.601 289.16C156.494 288.883 156.382 288.563 156.265 288.2C156.148 287.827 156.036 287.432 155.929 287.016C155.705 287.88 155.476 288.6 155.241 289.176L151.641 298.488H160.201ZM166.665 307H164.265C163.988 307 163.764 306.931 163.593 306.792C163.422 306.653 163.294 306.477 163.209 306.264L161.065 300.728H150.777L148.633 306.264C148.569 306.456 148.446 306.627 148.265 306.776C148.084 306.925 147.86 307 147.593 307H145.193L154.361 284.072H157.497L166.665 307ZM186.657 298.488L183.057 289.16C182.95 288.883 182.838 288.563 182.721 288.2C182.604 287.827 182.492 287.432 182.385 287.016C182.161 287.88 181.932 288.6 181.697 289.176L178.097 298.488H186.657ZM193.121 307H190.721C190.444 307 190.22 306.931 190.049 306.792C189.878 306.653 189.75 306.477 189.665 306.264L187.521 300.728H177.233L175.089 306.264C175.025 306.456 174.902 306.627 174.721 306.776C174.54 306.925 174.316 307 174.049 307H171.649L180.817 284.072H183.953L193.121 307ZM214.191 286.68H206.767V307H203.679V286.68H196.239V284.072H214.191V286.68ZM240.97 284.072V307H237.866V296.568H225.498V307H222.394V284.072H225.498V294.296H237.866V284.072H240.97ZM254.735 307H251.631V284.072H254.735V307Z" fill="#31B0B8"/>
</g>
<g filter="url(#filter3_i_746_136)">
<path d="M114.563 321.119C114.509 321.209 114.449 321.278 114.383 321.326C114.323 321.368 114.248 321.389 114.158 321.389C114.056 321.389 113.936 321.338 113.798 321.236C113.66 321.134 113.486 321.023 113.276 320.903C113.072 320.777 112.823 320.663 112.529 320.561C112.241 320.459 111.89 320.408 111.476 320.408C111.086 320.408 110.741 320.462 110.441 320.57C110.147 320.672 109.898 320.813 109.694 320.993C109.496 321.173 109.346 321.386 109.244 321.632C109.142 321.872 109.091 322.133 109.091 322.415C109.091 322.775 109.178 323.075 109.352 323.315C109.532 323.549 109.766 323.75 110.054 323.918C110.348 324.086 110.678 324.233 111.044 324.359C111.416 324.479 111.794 324.605 112.178 324.737C112.568 324.869 112.946 325.019 113.312 325.187C113.684 325.349 114.014 325.556 114.302 325.808C114.596 326.06 114.83 326.369 115.004 326.735C115.184 327.101 115.274 327.551 115.274 328.085C115.274 328.649 115.178 329.18 114.986 329.678C114.794 330.17 114.512 330.599 114.14 330.965C113.774 331.331 113.321 331.619 112.781 331.829C112.247 332.039 111.638 332.144 110.954 332.144C110.114 332.144 109.352 331.994 108.668 331.694C107.984 331.388 107.399 330.977 106.913 330.461L107.417 329.633C107.465 329.567 107.522 329.513 107.588 329.471C107.66 329.423 107.738 329.399 107.822 329.399C107.9 329.399 107.987 329.432 108.083 329.498C108.185 329.558 108.299 329.636 108.425 329.732C108.551 329.828 108.695 329.933 108.857 330.047C109.019 330.161 109.202 330.266 109.406 330.362C109.616 330.458 109.853 330.539 110.117 330.605C110.381 330.665 110.678 330.695 111.008 330.695C111.422 330.695 111.791 330.638 112.115 330.524C112.439 330.41 112.712 330.251 112.934 330.047C113.162 329.837 113.336 329.588 113.456 329.3C113.576 329.012 113.636 328.691 113.636 328.337C113.636 327.947 113.546 327.629 113.366 327.383C113.192 327.131 112.961 326.921 112.673 326.753C112.385 326.585 112.055 326.444 111.683 326.33C111.311 326.21 110.933 326.09 110.549 325.97C110.165 325.844 109.787 325.7 109.415 325.538C109.043 325.376 108.713 325.166 108.425 324.908C108.137 324.65 107.903 324.329 107.723 323.945C107.549 323.555 107.462 323.075 107.462 322.505C107.462 322.049 107.549 321.608 107.723 321.182C107.903 320.756 108.161 320.378 108.497 320.048C108.839 319.718 109.256 319.454 109.748 319.256C110.246 319.058 110.816 318.959 111.458 318.959C112.178 318.959 112.832 319.073 113.42 319.301C114.014 319.529 114.536 319.859 114.986 320.291L114.563 321.119ZM129.853 329.336C129.949 329.336 130.033 329.375 130.105 329.453L130.798 330.2C130.27 330.812 129.628 331.289 128.872 331.631C128.122 331.973 127.213 332.144 126.145 332.144C125.221 332.144 124.381 331.985 123.625 331.667C122.869 331.343 122.224 330.893 121.69 330.317C121.156 329.735 120.742 329.039 120.448 328.229C120.154 327.419 120.007 326.528 120.007 325.556C120.007 324.584 120.16 323.693 120.466 322.883C120.772 322.073 121.201 321.377 121.753 320.795C122.311 320.213 122.977 319.763 123.751 319.445C124.525 319.121 125.38 318.959 126.316 318.959C127.234 318.959 128.044 319.106 128.746 319.4C129.448 319.694 130.066 320.093 130.6 320.597L130.024 321.398C129.988 321.458 129.94 321.509 129.88 321.551C129.826 321.587 129.751 321.605 129.655 321.605C129.547 321.605 129.415 321.548 129.259 321.434C129.103 321.314 128.899 321.182 128.647 321.038C128.395 320.894 128.08 320.765 127.702 320.651C127.324 320.531 126.859 320.471 126.307 320.471C125.641 320.471 125.032 320.588 124.48 320.822C123.928 321.05 123.451 321.383 123.049 321.821C122.653 322.259 122.344 322.793 122.122 323.423C121.9 324.053 121.789 324.764 121.789 325.556C121.789 326.36 121.903 327.077 122.131 327.707C122.365 328.337 122.68 328.871 123.076 329.309C123.478 329.741 123.949 330.071 124.489 330.299C125.035 330.527 125.623 330.641 126.253 330.641C126.637 330.641 126.982 330.62 127.288 330.578C127.6 330.53 127.885 330.458 128.143 330.362C128.407 330.266 128.65 330.146 128.872 330.002C129.1 329.852 129.325 329.675 129.547 329.471C129.649 329.381 129.751 329.336 129.853 329.336ZM139.456 325.349C139.96 325.349 140.404 325.289 140.788 325.169C141.178 325.043 141.502 324.869 141.76 324.647C142.024 324.419 142.222 324.149 142.354 323.837C142.486 323.525 142.552 323.18 142.552 322.802C142.552 322.034 142.3 321.455 141.796 321.065C141.292 320.675 140.536 320.48 139.528 320.48H137.62V325.349H139.456ZM145.414 332H143.866C143.548 332 143.314 331.877 143.164 331.631L139.816 327.023C139.714 326.879 139.603 326.777 139.483 326.717C139.369 326.651 139.189 326.618 138.943 326.618H137.62V332H135.883V319.103H139.528C140.344 319.103 141.049 319.187 141.643 319.355C142.237 319.517 142.726 319.754 143.11 320.066C143.5 320.378 143.788 320.756 143.974 321.2C144.16 321.638 144.253 322.13 144.253 322.676C144.253 323.132 144.181 323.558 144.037 323.954C143.893 324.35 143.683 324.707 143.407 325.025C143.137 325.337 142.804 325.604 142.408 325.826C142.018 326.048 141.574 326.216 141.076 326.33C141.298 326.456 141.49 326.639 141.652 326.879L145.414 332ZM151.974 332H150.228V319.103H151.974V332ZM162.86 330.614C163.358 330.614 163.787 330.557 164.147 330.443C164.507 330.329 164.801 330.17 165.029 329.966C165.263 329.756 165.434 329.51 165.542 329.228C165.65 328.94 165.704 328.625 165.704 328.283C165.704 327.617 165.467 327.092 164.993 326.708C164.519 326.318 163.808 326.123 162.86 326.123H160.07V330.614H162.86ZM160.07 320.48V324.881H162.374C162.866 324.881 163.292 324.827 163.652 324.719C164.018 324.611 164.318 324.461 164.552 324.269C164.792 324.077 164.969 323.846 165.083 323.576C165.197 323.3 165.254 323 165.254 322.676C165.254 321.914 165.026 321.359 164.57 321.011C164.114 320.657 163.406 320.48 162.446 320.48H160.07ZM162.446 319.103C163.238 319.103 163.919 319.181 164.489 319.337C165.065 319.493 165.536 319.715 165.902 320.003C166.274 320.291 166.547 320.645 166.721 321.065C166.895 321.479 166.982 321.947 166.982 322.469C166.982 322.787 166.931 323.093 166.829 323.387C166.733 323.675 166.586 323.945 166.388 324.197C166.19 324.449 165.938 324.677 165.632 324.881C165.332 325.079 164.978 325.241 164.57 325.367C165.518 325.547 166.229 325.886 166.703 326.384C167.183 326.876 167.423 327.524 167.423 328.328C167.423 328.874 167.321 329.372 167.117 329.822C166.919 330.272 166.625 330.659 166.235 330.983C165.851 331.307 165.377 331.559 164.813 331.739C164.249 331.913 163.607 332 162.887 332H158.333V319.103H162.446ZM180.985 330.578L180.976 332H173.029V319.103H180.976V320.525H174.775V324.809H179.797V326.177H174.775V330.578H180.985ZM197.951 325.79C198.449 325.79 198.887 325.724 199.265 325.592C199.649 325.46 199.97 325.277 200.228 325.043C200.492 324.803 200.69 324.518 200.822 324.188C200.954 323.858 201.02 323.495 201.02 323.099C201.02 322.277 200.765 321.635 200.255 321.173C199.751 320.711 198.983 320.48 197.951 320.48H195.881V325.79H197.951ZM197.951 319.103C198.767 319.103 199.475 319.199 200.075 319.391C200.681 319.577 201.182 319.844 201.578 320.192C201.974 320.54 202.268 320.96 202.46 321.452C202.658 321.944 202.757 322.493 202.757 323.099C202.757 323.699 202.652 324.248 202.442 324.746C202.232 325.244 201.923 325.673 201.515 326.033C201.113 326.393 200.612 326.675 200.012 326.879C199.418 327.077 198.731 327.176 197.951 327.176H195.881V332H194.144V319.103H197.951ZM219.93 325.556C219.93 326.522 219.777 327.41 219.471 328.22C219.165 329.024 218.733 329.717 218.175 330.299C217.617 330.881 216.945 331.334 216.159 331.658C215.379 331.976 214.515 332.135 213.567 332.135C212.619 332.135 211.755 331.976 210.975 331.658C210.195 331.334 209.526 330.881 208.968 330.299C208.41 329.717 207.978 329.024 207.672 328.22C207.366 327.41 207.213 326.522 207.213 325.556C207.213 324.59 207.366 323.705 207.672 322.901C207.978 322.091 208.41 321.395 208.968 320.813C209.526 320.225 210.195 319.769 210.975 319.445C211.755 319.121 212.619 318.959 213.567 318.959C214.515 318.959 215.379 319.121 216.159 319.445C216.945 319.769 217.617 320.225 218.175 320.813C218.733 321.395 219.165 322.091 219.471 322.901C219.777 323.705 219.93 324.59 219.93 325.556ZM218.139 325.556C218.139 324.764 218.031 324.053 217.815 323.423C217.599 322.793 217.293 322.262 216.897 321.83C216.501 321.392 216.021 321.056 215.457 320.822C214.893 320.588 214.263 320.471 213.567 320.471C212.877 320.471 212.25 320.588 211.686 320.822C211.122 321.056 210.639 321.392 210.237 321.83C209.841 322.262 209.535 322.793 209.319 323.423C209.103 324.053 208.995 324.764 208.995 325.556C208.995 326.348 209.103 327.059 209.319 327.689C209.535 328.313 209.841 328.844 210.237 329.282C210.639 329.714 211.122 330.047 211.686 330.281C212.25 330.509 212.877 330.623 213.567 330.623C214.263 330.623 214.893 330.509 215.457 330.281C216.021 330.047 216.501 329.714 216.897 329.282C217.293 328.844 217.599 328.313 217.815 327.689C218.031 327.059 218.139 326.348 218.139 325.556ZM229.061 325.349C229.565 325.349 230.009 325.289 230.393 325.169C230.783 325.043 231.107 324.869 231.365 324.647C231.629 324.419 231.827 324.149 231.959 323.837C232.091 323.525 232.157 323.18 232.157 322.802C232.157 322.034 231.905 321.455 231.401 321.065C230.897 320.675 230.141 320.48 229.133 320.48H227.225V325.349H229.061ZM235.019 332H233.471C233.153 332 232.919 331.877 232.769 331.631L229.421 327.023C229.319 326.879 229.208 326.777 229.088 326.717C228.974 326.651 228.794 326.618 228.548 326.618H227.225V332H225.488V319.103H229.133C229.949 319.103 230.654 319.187 231.248 319.355C231.842 319.517 232.331 319.754 232.715 320.066C233.105 320.378 233.393 320.756 233.579 321.2C233.765 321.638 233.858 322.13 233.858 322.676C233.858 323.132 233.786 323.558 233.642 323.954C233.498 324.35 233.288 324.707 233.012 325.025C232.742 325.337 232.409 325.604 232.013 325.826C231.623 326.048 231.179 326.216 230.681 326.33C230.903 326.456 231.095 326.639 231.257 326.879L235.019 332ZM248.132 320.57H243.956V332H242.219V320.57H238.034V319.103H248.132V320.57ZM258.69 327.212L256.665 321.965C256.605 321.809 256.542 321.629 256.476 321.425C256.41 321.215 256.347 320.993 256.287 320.759C256.161 321.245 256.032 321.65 255.9 321.974L253.875 327.212H258.69ZM262.326 332H260.976C260.82 332 260.694 331.961 260.598 331.883C260.502 331.805 260.43 331.706 260.382 331.586L259.176 328.472H253.389L252.183 331.586C252.147 331.694 252.078 331.79 251.976 331.874C251.874 331.958 251.748 332 251.598 332H250.248L255.405 319.103H257.169L262.326 332ZM274.399 330.533V332H267.082V319.103H268.819V330.533H274.399Z" fill="#31B0B8"/>
</g>
<defs>
<filter id="filter0_i_746_136" x="118" y="160" width="96.0742" height="38.3693" filterUnits="userSpaceOnUse" color-interpolation-filters="sRGB">
<feFlood flood-opacity="0" result="BackgroundImageFix"/>
<feBlend mode="normal" in="SourceGraphic" in2="BackgroundImageFix" result="shape"/>
<feColorMatrix in="SourceAlpha" type="matrix" values="0 0 0 0 0 0 0 0 0 0 0 0 0 0 0 0 0 0 127 0" result="hardAlpha"/>
<feOffset dy="4"/>
<feGaussianBlur stdDeviation="2"/>
<feComposite in2="hardAlpha" operator="arithmetic" k2="-1" k3="1"/>
<feColorMatrix type="matrix" values="0 0 0 0 0 0 0 0 0 0 0 0 0 0 0 0 0 0 0.25 0"/>
<feBlend mode="normal" in2="shape" result="effect1_innerShadow_746_136"/>
</filter>
<filter id="filter1_i_746_136" x="83" y="107.329" width="204.5" height="142.808" filterUnits="userSpaceOnUse" color-interpolation-filters="sRGB">
<feFlood flood-opacity="0" result="BackgroundImageFix"/>
<feBlend mode="normal" in="SourceGraphic" in2="BackgroundImageFix" result="shape"/>
<feColorMatrix in="SourceAlpha" type="matrix" values="0 0 0 0 0 0 0 0 0 0 0 0 0 0 0 0 0 0 127 0" result="hardAlpha"/>
<feOffset dy="4"/>
<feGaussianBlur stdDeviation="2"/>
<feComposite in2="hardAlpha" operator="arithmetic" k2="-1" k3="1"/>
<feColorMatrix type="matrix" values="0 0 0 0 0 0 0 0 0 0 0 0 0 0 0 0 0 0 0.25 0"/>
<feBlend mode="normal" in2="shape" result="effect1_innerShadow_746_136"/>
</filter>
<filter id="filter2_i_746_136" x="124.385" y="283.816" width="130.35" height="28.4639" filterUnits="userSpaceOnUse" color-interpolation-filters="sRGB">
<feFlood flood-opacity="0" result="BackgroundImageFix"/>
<feBlend mode="normal" in="SourceGraphic" in2="BackgroundImageFix" result="shape"/>
<feColorMatrix in="SourceAlpha" type="matrix" values="0 0 0 0 0 0 0 0 0 0 0 0 0 0 0 0 0 0 127 0" result="hardAlpha"/>
<feOffset dy="5.024"/>
<feGaussianBlur stdDeviation="2.512"/>
<feComposite in2="hardAlpha" operator="arithmetic" k2="-1" k3="1"/>
<feColorMatrix type="matrix" values="0 0 0 0 0 0 0 0 0 0 0 0 0 0 0 0 0 0 0.25 0"/>
<feBlend mode="normal" in2="shape" result="effect1_innerShadow_746_136"/>
</filter>
<filter id="filter3_i_746_136" x="106.912" y="318.959" width="167.486" height="18.2091" filterUnits="userSpaceOnUse" color-interpolation-filters="sRGB">
<feFlood flood-opacity="0" result="BackgroundImageFix"/>
<feBlend mode="normal" in="SourceGraphic" in2="BackgroundImageFix" result="shape"/>
<feColorMatrix in="SourceAlpha" type="matrix" values="0 0 0 0 0 0 0 0 0 0 0 0 0 0 0 0 0 0 127 0" result="hardAlpha"/>
<feOffset dy="5.024"/>
<feGaussianBlur stdDeviation="2.512"/>
<feComposite in2="hardAlpha" operator="arithmetic" k2="-1" k3="1"/>
<feColorMatrix type="matrix" values="0 0 0 0 0 0 0 0 0 0 0 0 0 0 0 0 0 0 0.25 0"/>
<feBlend mode="normal" in2="shape" result="effect1_innerShadow_746_136"/>
</filter>
</defs>
</svg>
